<?xml version="1.0" encoding="UTF-8"?>
<svg id="GxPGroup" xmlns="http://www.w3.org/2000/svg" viewBox="0 0 136.06 136.06">
  <defs>
    <style>
      .cls-1 {
        fill: #1e50a2;
      }
    </style>
  </defs>
  <path class="cls-1" d="m2.9,48.43l19.49,19.59L2.9,87.63c.98,3.26,2.23,6.39,3.67,9.42l28.86-29.02L6.58,39.01c-1.43,3.03-2.7,6.15-3.67,9.42Z"/>
  <path class="cls-1" d="m87.59,120.47l-19.55-19.67-28.69,28.85c3.05,1.41,6.19,2.65,9.46,3.61l19.24-19.34,13.04,13.12,6.52-6.56Z"/>
  <path class="cls-1" d="m88.14,133.03c9.13-2.82,17.4-7.56,24.43-13.67l-44.54-44.78-44.55,44.78c2.35,2.04,4.82,3.94,7.44,5.64l37.11-37.31,32.6,32.78-12.49,12.56Z"/>
  <path class="cls-1" d="m16.94,112.84l44.57-44.82L16.94,23.21c-2.05,2.33-3.97,4.79-5.7,7.39l37.22,37.42L11.25,105.45c1.72,2.61,3.64,5.06,5.7,7.39Z"/>
  <path class="cls-1" d="m126.71,68.02l8.72,8.78c.38-2.89.63-5.79.63-8.77s-.25-5.88-.63-8.77l-8.72,8.76Z"/>
  <path class="cls-1" d="m9.35,68.03L.63,59.25c-.37,2.89-.63,5.79-.63,8.77s.26,5.89.63,8.77l8.72-8.77Z"/>
  <path class="cls-1" d="m68.04,127.03l-8.41,8.46c2.76.33,5.56.57,8.41.57s5.64-.23,8.41-.57l-8.41-8.46Z"/>
  <path class="cls-1" d="m48.47,15.58l19.57,19.67,19.56-19.67-6.53-6.56-13.04,13.11-6.52-6.55L76.44.58c-2.75-.35-5.56-.58-8.4-.58-1.45,0-2.87.13-4.28.22l-15.28,15.36Z"/>
  <path class="cls-1" d="m87.59,68.02l37.22-37.43c-1.72-2.6-3.63-5.05-5.69-7.38l-44.58,44.81,44.58,44.82c2.05-2.34,3.97-4.79,5.69-7.39l-37.22-37.43Z"/>
  <path class="cls-1" d="m113.67,68.03l19.5-19.6c-.97-3.26-2.24-6.39-3.67-9.42l-28.86,29.02,28.86,29.02c1.44-3.03,2.7-6.15,3.67-9.42l-19.5-19.6Z"/>
  <path class="cls-1" d="m35.44,15.58l12.48-12.55c-9.13,2.83-17.39,7.56-24.42,13.65l44.54,44.78,44.54-44.78c-7.04-6.1-15.3-10.83-24.42-13.65l12.48,12.55-32.6,32.77L35.44,15.58Z"/>
</svg>